<?xml version="1.0" encoding="utf-8"?>
<!-- Generator: Adobe Illustrator 24.1.2, SVG Export Plug-In . SVG Version: 6.00 Build 0)  -->
<svg version="1.1" id="Layer_1" xmlns="http://www.w3.org/2000/svg" xmlns:xlink="http://www.w3.org/1999/xlink" x="0px" y="0px"
	 viewBox="0 0 425.2 425.2" style="enable-background:new 0 0 425.2 425.2;" xml:space="preserve">
<style type="text/css">
	.st0{fill:#FFFFFF;}
	.st1{fill:none;}
	.st2{font-family:'TwCenMT-Regular';}
	.st3{font-size:41.4012px;}
	.st4{letter-spacing:17;}
	.st5{font-size:26.1481px;}
	.st6{letter-spacing:7;}
	.st7{stroke:#000000;stroke-width:0.5;stroke-miterlimit:10;}
	.st8{fill:none;stroke:#000000;stroke-width:2;stroke-miterlimit:10;}
	.st9{fill:#FFFFFF;stroke:#000000;stroke-width:5;stroke-miterlimit:10;}
</style>
<path d="M215.01,183.89c1.27,0,2.3,1.03,2.3,2.3c0,1.27-1.03,2.3-2.3,2.3c-1.27,0-2.3-1.03-2.3-2.3
	C212.71,184.92,213.74,183.89,215.01,183.89L215.01,183.89z M215.01,194.55c4.62,0,8.36-3.74,8.36-8.36c0-4.62-3.74-8.36-8.36-8.36
	c-4.62,0-8.36,3.74-8.36,8.36C206.65,190.81,210.39,194.55,215.01,194.55L215.01,194.55z"/>
<path d="M215.02,189.93c-1.29,0-2.55-0.67-3.24-1.87c-1.03-1.79-0.42-4.07,1.37-5.11c0.59-0.34,1.23-0.5,1.86-0.5
	c1.29,0,2.55,0.67,3.24,1.87c1.03,1.79,0.42,4.07-1.37,5.11C216.29,189.77,215.65,189.93,215.02,189.93L215.02,189.93z
	 M212.51,172.85c-1.47,0.28-2.92,0.79-4.29,1.58c-0.21,0.12-0.39,0.25-0.59,0.38c0.42,1.29,0.36,2.73-0.31,4.04
	c-0.93,1.82-2.78,2.87-4.69,2.87c-0.14,0-0.29-0.01-0.44-0.02c-0.58,1.66-0.84,3.43-0.75,5.2c1.33,0.27,2.55,1.06,3.35,2.28
	c1.2,1.85,1.09,4.16-0.1,5.86c1.17,1.37,2.58,2.46,4.12,3.25c0.9-1.02,2.19-1.68,3.65-1.76c0.1-0.01,0.19-0.01,0.28-0.01
	c2.08,0,3.9,1.22,4.75,3.02c1.47-0.28,2.92-0.79,4.29-1.58c0.2-0.12,0.39-0.25,0.59-0.38c-0.43-1.29-0.36-2.73,0.31-4.04
	c0.93-1.82,2.77-2.87,4.69-2.87c0.15,0,0.29,0.01,0.44,0.02c0.58-1.66,0.84-3.42,0.75-5.2c-1.33-0.27-2.55-1.06-3.35-2.28
	c-1.2-1.85-1.09-4.16,0.1-5.86c-1.17-1.37-2.58-2.46-4.13-3.25c-0.9,1.02-2.19,1.68-3.65,1.76c-0.1,0-0.19,0.01-0.28,0.01
	C215.17,175.87,213.35,174.64,212.51,172.85L212.51,172.85z M215.02,191.08c0.86,0,1.7-0.23,2.44-0.66
	c1.13-0.65,1.94-1.71,2.28-2.97c0.34-1.26,0.16-2.58-0.49-3.71c-0.87-1.51-2.49-2.44-4.24-2.44c-0.85,0-1.7,0.23-2.44,0.66
	c-2.33,1.35-3.13,4.34-1.79,6.68C211.65,190.14,213.27,191.08,215.02,191.08L215.02,191.08z M211.92,174.15
	c1.18,1.76,3.18,2.86,5.33,2.86c0.11,0,0.23,0,0.34-0.01c1.41-0.07,2.72-0.6,3.78-1.49c0.92,0.55,1.77,1.21,2.52,1.98
	c-1.01,2.01-0.89,4.42,0.36,6.34c0.77,1.18,1.88,2.06,3.18,2.53c-0.02,1.07-0.17,2.13-0.46,3.17c-2.26,0.14-4.27,1.45-5.31,3.48
	c-0.64,1.26-0.84,2.66-0.6,4.03c-0.93,0.52-1.93,0.91-2.98,1.18c-1.18-1.76-3.18-2.86-5.33-2.86c-0.11,0-0.23,0-0.34,0.01
	c-1.41,0.07-2.72,0.6-3.78,1.49c-0.92-0.55-1.76-1.21-2.52-1.98c1.01-2.01,0.89-4.42-0.36-6.34c-0.77-1.18-1.88-2.06-3.18-2.53
	c0.02-1.07,0.17-2.13,0.46-3.17c2.26-0.14,4.27-1.45,5.31-3.48c0.64-1.26,0.85-2.66,0.6-4.03
	C209.88,174.81,210.87,174.42,211.92,174.15L211.92,174.15z"/>
<path d="M207.33,194.5c0-0.58,0.46-1.04,1.04-1.04c0.57,0,1.04,0.47,1.04,1.04c0,0.58-0.47,1.04-1.04,1.04
	C207.79,195.54,207.33,195.07,207.33,194.5L207.33,194.5z"/>
<path d="M218.31,196.91c-0.5-0.29-0.67-0.93-0.38-1.42c0.29-0.5,0.92-0.67,1.42-0.38c0.5,0.29,0.67,0.93,0.38,1.42
	C219.45,197.03,218.81,197.2,218.31,196.91L218.31,196.91z"/>
<path d="M226,188.66c-0.5,0.29-1.14,0.12-1.43-0.38c-0.29-0.5-0.11-1.14,0.38-1.42c0.5-0.29,1.13-0.12,1.42,0.38
	C226.67,187.74,226.49,188.38,226,188.66L226,188.66z"/>
<path d="M222.58,177.77c0,0.58-0.47,1.04-1.04,1.04c-0.58,0-1.05-0.47-1.05-1.04c0-0.58,0.47-1.04,1.05-1.04
	C222.12,176.73,222.58,177.19,222.58,177.77L222.58,177.77z"/>
<path d="M211.6,175.47c0.5,0.29,0.67,0.93,0.38,1.42c-0.29,0.5-0.92,0.67-1.42,0.38c-0.5-0.29-0.67-0.93-0.38-1.42
	C210.46,175.35,211.1,175.18,211.6,175.47L211.6,175.47z"/>
<path d="M204.03,183.6c0.5-0.29,1.13-0.12,1.42,0.38c0.29,0.5,0.12,1.14-0.38,1.42c-0.5,0.29-1.14,0.12-1.43-0.38
	C203.36,184.53,203.53,183.89,204.03,183.6L204.03,183.6z"/>
<polygon points="261.36,320.2 225.9,191.04 227.06,190.72 262.51,319.88 261.36,320.2 "/>
<path d="M261.93,321.24c-0.53,0-1.01-0.35-1.15-0.88l-2.17-7.91c-0.17-0.64,0.2-1.3,0.84-1.47c0.63-0.18,1.3,0.2,1.47,0.84
	l2.17,7.91c0.17,0.64-0.2,1.3-0.84,1.47C262.14,321.23,262.04,321.24,261.93,321.24L261.93,321.24z"/>
<polygon points="154.35,313.94 153.23,313.51 202.48,186.72 203.6,187.15 154.35,313.94 "/>
<path d="M153.79,314.92c-0.14,0-0.29-0.03-0.43-0.08c-0.62-0.24-0.93-0.93-0.69-1.55l2.95-7.65c0.24-0.62,0.94-0.92,1.55-0.69
	c0.62,0.24,0.93,0.93,0.69,1.55l-2.95,7.65C154.73,314.63,154.27,314.92,153.79,314.92L153.79,314.92z"/>
<polygon points="354.24,213.06 224.7,179.19 225,178.03 354.54,211.9 354.24,213.06 "/>
<path d="M354.39,213.68c-0.1,0-0.2-0.01-0.3-0.04l-7.94-2.07c-0.64-0.17-1.02-0.82-0.86-1.46c0.17-0.64,0.82-1.02,1.46-0.86
	l7.93,2.07c0.64,0.17,1.02,0.82,0.86,1.46C355.41,213.32,354.92,213.68,354.39,213.68L354.39,213.68z"/>
<polygon points="294.39,303.35 209.31,197.45 210.25,196.7 295.32,302.6 294.39,303.35 "/>
<path d="M294.85,304.17c-0.35,0-0.7-0.15-0.94-0.44l-5.16-6.38c-0.41-0.51-0.33-1.27,0.18-1.68c0.51-0.42,1.27-0.33,1.68,0.18
	l5.16,6.38c0.41,0.51,0.33,1.27-0.18,1.68C295.38,304.09,295.11,304.17,294.85,304.17L294.85,304.17z"/>
<polygon points="213.68,174.42 212.83,173.58 307.05,78.21 307.9,79.05 213.68,174.42 "/>
<path d="M301.71,85.66c-0.3,0-0.61-0.11-0.84-0.35c-0.47-0.46-0.48-1.22-0.01-1.69l5.76-5.83c0.47-0.47,1.22-0.48,1.7-0.01
	c0.47,0.46,0.47,1.22,0.01,1.69l-5.76,5.83C302.33,85.54,302.02,85.66,301.71,85.66L301.71,85.66z"/>
<polygon points="221.45,196.82 221.26,195.64 355.98,174.85 356.16,176.03 221.45,196.82 "/>
<path d="M347.97,177.91c-0.58,0-1.09-0.42-1.18-1.01c-0.1-0.65,0.34-1.27,0.99-1.37l8.1-1.27c0.65-0.1,1.26,0.34,1.37,1
	c0.1,0.65-0.34,1.27-1,1.37l-8.1,1.27C348.09,177.91,348.03,177.91,347.97,177.91L347.97,177.91z"/>
<polygon points="203.02,181.86 167.51,52.5 168.67,52.18 204.17,181.54 203.02,181.86 "/>
<path d="M170.26,61.44c-0.53,0-1.01-0.35-1.15-0.88l-2.17-7.91c-0.17-0.64,0.2-1.3,0.84-1.47c0.63-0.17,1.29,0.2,1.47,0.84
	l2.17,7.91c0.18,0.64-0.2,1.3-0.84,1.47C170.47,61.43,170.37,61.44,170.26,61.44L170.26,61.44z"/>
<polygon points="227.54,185.66 226.43,185.23 275.67,58.44 276.79,58.87 227.54,185.66 "/>
<path d="M273.29,67.51c-0.15,0-0.29-0.03-0.43-0.08c-0.62-0.24-0.92-0.93-0.69-1.55l2.94-7.65c0.24-0.62,0.94-0.92,1.55-0.69
	c0.61,0.24,0.92,0.93,0.69,1.55l-2.95,7.65C274.22,67.21,273.77,67.51,273.29,67.51L273.29,67.51z"/>
<polygon points="204.92,194.32 75.48,160.48 75.78,159.32 205.22,193.16 204.92,194.32 "/>
<path d="M83.57,163.17c-0.1,0-0.2-0.01-0.3-0.04l-7.94-2.07c-0.64-0.17-1.02-0.82-0.86-1.46c0.17-0.64,0.82-1.02,1.46-0.86
	l7.93,2.07c0.64,0.17,1.02,0.82,0.86,1.46C84.59,162.81,84.1,163.17,83.57,163.17L83.57,163.17z"/>
<polygon points="219.88,175.81 134.71,69.78 135.64,69.03 220.81,175.07 219.88,175.81 "/>
<path d="M140.33,76.98c-0.35,0-0.69-0.15-0.93-0.44l-5.16-6.38c-0.42-0.51-0.34-1.27,0.18-1.68c0.52-0.42,1.27-0.33,1.68,0.18
	l5.16,6.38c0.42,0.51,0.33,1.27-0.18,1.68C140.86,76.89,140.59,76.98,140.33,76.98L140.33,76.98z"/>
<polygon points="122.98,294.17 122.13,293.33 216.25,198.06 217.1,198.9 122.98,294.17 "/>
<path d="M122.55,294.95c-0.31,0-0.61-0.12-0.84-0.35c-0.47-0.46-0.48-1.22-0.01-1.69l5.77-5.83c0.46-0.47,1.22-0.47,1.69-0.01
	c0.47,0.46,0.48,1.22,0.01,1.69l-5.76,5.83C123.17,294.83,122.86,294.95,122.55,294.95L122.55,294.95z"/>
<polygon points="74.05,197.53 73.86,196.35 208.58,175.56 208.76,176.74 74.05,197.53 "/>
<path d="M73.95,198.14c-0.58,0-1.09-0.42-1.18-1.01c-0.1-0.65,0.34-1.27,1-1.37l8.1-1.28c0.66-0.11,1.26,0.34,1.37,1
	c0.1,0.65-0.34,1.27-1,1.37l-8.1,1.28C74.08,198.13,74.01,198.14,73.95,198.14L73.95,198.14z"/>
<polygon points="185.61,324.99 184.47,324.66 221.13,197.93 222.27,198.26 185.61,324.99 "/>
<path d="M185.04,326.02c-0.11,0-0.22-0.02-0.34-0.05c-0.63-0.18-1-0.85-0.81-1.48l2.28-7.88c0.18-0.64,0.85-1,1.48-0.82
	c0.63,0.18,1,0.85,0.82,1.48l-2.28,7.88C186.04,325.68,185.56,326.02,185.04,326.02L185.04,326.02z"/>
<polygon points="96.52,263.39 95.79,262.43 201.96,181.68 202.69,182.63 96.52,263.39 "/>
<path d="M96.16,264.11c-0.36,0-0.72-0.16-0.95-0.47c-0.4-0.53-0.31-1.28,0.22-1.68l6.51-4.99c0.53-0.4,1.28-0.3,1.68,0.22
	c0.4,0.53,0.3,1.28-0.22,1.68l-6.51,4.98C96.66,264.03,96.41,264.11,96.16,264.11L96.16,264.11z"/>
<polygon points="294.88,255.87 228.19,186.73 229.06,185.91 295.75,255.05 295.4,256.41 "/>
<path d="M320.09,282.66c-0.31,0-0.63-0.12-0.86-0.37l-5.68-5.92c-0.46-0.48-0.44-1.23,0.04-1.69c0.48-0.46,1.23-0.44,1.69,0.03
	l5.68,5.92c0.46,0.48,0.44,1.23-0.03,1.69C320.68,282.55,320.38,282.66,320.09,282.66L320.09,282.66z"/>
<polygon points="221.43,327.56 204.61,195.5 205.8,195.35 222.61,327.41 221.43,327.56 "/>
<path d="M222.02,328.68c-0.59,0-1.11-0.44-1.18-1.04l-1.06-8.13c-0.08-0.66,0.38-1.26,1.03-1.34c0.66-0.09,1.26,0.38,1.34,1.03
	l1.06,8.13c0.09,0.66-0.38,1.26-1.03,1.34C222.12,328.68,222.07,328.68,222.02,328.68L222.02,328.68z"/>
<polygon points="221.95,174.99 221.66,173.82 349.91,142.25 350.2,143.41 221.95,174.99 "/>
<path d="M342.1,145.99c-0.54,0-1.03-0.36-1.16-0.91c-0.16-0.64,0.23-1.29,0.88-1.45l7.96-1.96c0.64-0.16,1.29,0.23,1.45,0.88
	c0.16,0.64-0.23,1.29-0.88,1.45l-7.96,1.96C342.29,145.98,342.19,145.99,342.1,145.99L342.1,145.99z"/>
<polygon points="340.65,251.32 217.88,199.85 218.34,198.75 341.11,250.21 340.65,251.32 "/>
<path d="M340.88,251.96c-0.15,0-0.31-0.03-0.46-0.09l-7.58-3.15c-0.61-0.25-0.9-0.95-0.65-1.56c0.25-0.61,0.95-0.9,1.57-0.65
	l7.57,3.15c0.61,0.25,0.9,0.95,0.65,1.56C341.8,251.68,341.35,251.96,340.88,251.96L340.88,251.96z"/>
<polygon points="208.7,174.83 207.55,174.49 244.41,47.39 245.56,47.72 208.7,174.83 "/>
<path d="M242.7,56.63c-0.11,0-0.22-0.02-0.33-0.05c-0.63-0.18-1-0.85-0.82-1.48l2.29-7.88c0.18-0.63,0.84-1,1.48-0.82
	c0.63,0.18,1,0.85,0.82,1.48l-2.29,7.88C243.7,56.29,243.22,56.63,242.7,56.63L242.7,56.63z"/>
<polygon points="228.51,190.36 227.78,189.41 333.51,109 334.23,109.95 228.51,190.36 "/>
<path d="M327.36,115.65c-0.36,0-0.72-0.16-0.95-0.47c-0.4-0.53-0.3-1.28,0.23-1.68l6.51-4.98c0.53-0.4,1.28-0.3,1.68,0.22
	c0.4,0.52,0.3,1.28-0.23,1.68l-6.51,4.98C327.87,115.57,327.61,115.65,327.36,115.65L327.36,115.65z"/>
<polygon points="200.96,186.49 109.5,91.33 110.37,90.5 201.83,185.66 200.96,186.49 "/>
<path d="M115.61,98.03c-0.31,0-0.63-0.12-0.86-0.37l-5.68-5.92c-0.46-0.48-0.44-1.23,0.04-1.69c0.48-0.46,1.23-0.44,1.69,0.03
	l5.68,5.92c0.46,0.48,0.44,1.24-0.03,1.69C116.21,97.92,115.92,98.03,115.61,98.03L115.61,98.03z"/>
<polygon points="224.24,177.13 207.41,44.97 208.6,44.82 225.42,176.98 224.24,177.13 "/>
<path d="M209.06,54.23c-0.59,0-1.11-0.44-1.18-1.04l-1.06-8.13c-0.08-0.66,0.38-1.26,1.03-1.34c0.66-0.08,1.26,0.38,1.34,1.03
	l1.06,8.13c0.09,0.66-0.38,1.26-1.03,1.34C209.16,54.22,209.11,54.23,209.06,54.23L209.06,54.23z"/>
<polygon points="80.11,230.13 79.82,228.97 207.96,197.39 208.25,198.56 80.11,230.13 "/>
<path d="M79.96,230.75c-0.53,0-1.03-0.37-1.16-0.91c-0.15-0.64,0.24-1.29,0.88-1.45l7.96-1.96c0.65-0.15,1.29,0.24,1.45,0.88
	c0.16,0.64-0.23,1.29-0.88,1.45l-7.96,1.96C80.16,230.74,80.06,230.75,79.96,230.75L79.96,230.75z"/>
<polygon points="211.77,173.67 88.91,122.17 89.37,121.06 212.23,172.57 211.77,173.67 "/>
<path d="M96.71,125.96c-0.15,0-0.31-0.03-0.46-0.09l-7.57-3.15c-0.61-0.25-0.9-0.95-0.65-1.56c0.25-0.61,0.96-0.9,1.57-0.65
	l7.57,3.15c0.61,0.25,0.9,0.95,0.65,1.57C97.63,125.68,97.19,125.96,96.71,125.96L96.71,125.96z"/>
<path d="M215.01,37.77c-81.97,0-148.42,66.45-148.42,148.42s66.45,148.42,148.42,148.42c81.97,0,148.42-66.45,148.42-148.42
	S296.98,37.77,215.01,37.77L215.01,37.77z M215.01,46.15c37.4,0,72.58,14.57,99.02,41.02c26.45,26.45,41.02,61.62,41.02,99.02
	c0,37.41-14.57,72.57-41.02,99.02c-26.45,26.45-61.62,41.02-99.02,41.02c-37.4,0-72.57-14.57-99.02-41.02
	c-26.45-26.45-41.01-61.62-41.01-99.02c0-37.41,14.57-72.57,41.01-99.02C142.44,60.72,177.61,46.15,215.01,46.15L215.01,46.15z"/>
<path d="M213.43,312.57h2.06c0.34,0,0.62,0.28,0.62,0.62v13.68c0,0.34-0.28,0.62-0.62,0.62h-2.06c-0.34,0-0.62-0.28-0.62-0.62
	v-13.68C212.82,312.84,213.09,312.57,213.43,312.57L213.43,312.57z"/>
<path d="M214.46,309.62L214.46,309.62c0.67,0,1.21,0.54,1.21,1.21v3.49h-2.42v-3.49C213.26,310.17,213.79,309.62,214.46,309.62
	L214.46,309.62z"/>
<path class="st0" d="M378.96,261.27c0,0-4.45,5.56-24.11,5.93c-19.66,0.37-17.8-11.5-17.8-11.5s-3.34,1.48-13.35,5.93
	c-10.01,4.45-15.58,3.71-15.58,3.71s-12.61,2.23-13.35-9.27c-0.74-11.5,13.35-8.53,13.35-8.53s-4.82-10.76-44.14,2.97
	c-39.31,13.72-64.16,5.93-64.16,5.93s-28.69-5.17-27.58-31.06c1.11-25.9,13.91-29.17,26.56-29.95c16.85-1.04,28.46,8.72,28.46,8.72
	s11.87-36.72-36.35-36.35c-48.22,0.37-77.15,40.43-77.15,40.43s-48.59,59.71-59.34,67c-10.76,7.28-20.77,0-20.77,0v126.66h359.1
	V284.84L378.96,261.27z"/>
<rect x="-65.96" y="297.43" class="st1" width="560.32" height="125.26"/>
<text transform="matrix(1 0 0 1 45.4453 323.6797)" class="st2 st3 st4">INVERLOCH</text>
<rect x="-65.96" y="354.53" class="st1" width="560.32" height="125.26"/>
<text transform="matrix(1 0 0 1 133.8423 371.1074)" class="st2 st5 st6">BIKE HIRE</text>
<line class="st7" x1="36.24" y1="364.67" x2="121.49" y2="364.67"/>
<line class="st7" x1="308.72" y1="364.67" x2="393.97" y2="364.67"/>
<path class="st8" d="M379.5,260.62c0,0-4.45,5.56-24.11,5.93c-19.66,0.37-17.8-11.5-17.8-11.5s-3.34,1.48-13.35,5.93
	s-15.58,3.71-15.58,3.71s-12.61,2.23-13.35-9.27c-0.74-11.5,13.35-8.53,13.35-8.53s-4.82-10.76-44.14,2.97s-64.16,5.93-64.16,5.93
	s-28.69-5.17-27.58-31.06s13.91-29.17,26.56-29.95c16.85-1.04,28.46,8.72,28.46,8.72s11.87-36.72-36.35-36.35
	s-77.15,40.43-77.15,40.43s-48.59,59.71-59.34,67c-10.76,7.28-20.77,0-20.77,0"/>
<path class="st9" d="M76.78,229.18c1.48,3.26,2.96,6.51,4.44,9.77"/>
<path class="st9" d="M342.08,255.14c1.58-3.21,3.17-6.41,4.75-9.62"/>
</svg>
